<svg xmlns="http://www.w3.org/2000/svg" viewBox="0 0 512 512">
  <defs>
    <radialGradient id="g1" cx="25%" cy="0%" r="85%">
      <stop offset="0" stop-color="#e94560" stop-opacity=".55" />
      <stop offset=".55" stop-color="#1a1a2e" stop-opacity="1" />
      <stop offset="1" stop-color="#0f0f23" stop-opacity="1" />
    </radialGradient>
    <linearGradient id="g2" x1="0" y1="0" x2="1" y2="1">
      <stop offset="0" stop-color="#ffffff" stop-opacity=".18" />
      <stop offset="1" stop-color="#ffffff" stop-opacity="0" />
    </linearGradient>
  </defs>
  <rect width="512" height="512" rx="120" fill="url(#g1)" />
  <path d="M64 120c110-70 274-70 384 0v272c-110 70-274 70-384 0V120Z" fill="#16213e" opacity=".85" />
  <path
    d="M160 168h192v22H160v-22Zm0 58h144v22H160v-22Zm0 58h192v22H160v-22Zm0 58h120v22H160v-22Z"
    fill="#fff"
    opacity=".82"
  />
  <circle cx="396" cy="156" r="52" fill="#e94560" opacity=".9" />
  <path
    d="M336 408c46-10 86-32 112-64v60c-34 28-74 48-120 58-92 20-206-2-264-54v-60c52 48 166 76 272 60Z"
    fill="url(#g2)"
  />
</svg>

